<mxfile host="app.diagrams.net" modified="2021-11-16T03:50:22.979Z" agent="5.0 (Windows NT 10.0; WOW64) AppleWebKit/537.36 (KHTML, like Gecko) Chrome/72.0.3626.121 Safari/537.36" etag="nQncZkbSSpJxO8y7oaPB" version="15.7.3" type="github">
  <diagram id="E2hHb2cpQd3TLEIiY6_y" name="第 1 页">
    <mxGraphModel dx="1422" dy="713" grid="1" gridSize="10" guides="1" tooltips="1" connect="1" arrows="1" fold="1" page="1" pageScale="1" pageWidth="827" pageHeight="1169" math="0" shadow="0">
      <root>
        <mxCell id="0" />
        <mxCell id="1" parent="0" />
        <mxCell id="NaCixYyaY_WqhjoxsWZP-1" value="schedule_config" style="rounded=0;whiteSpace=wrap;html=1;fillColor=#dae8fc;strokeColor=#6c8ebf;" vertex="1" parent="1">
          <mxGeometry x="60" y="290" width="100" height="50" as="geometry" />
        </mxCell>
        <mxCell id="NaCixYyaY_WqhjoxsWZP-4" value="payent,rank,drop..." style="rounded=0;whiteSpace=wrap;html=1;align=center;fillColor=#d5e8d4;strokeColor=#82b366;" vertex="1" parent="1">
          <mxGeometry x="290" y="290" width="100" height="50" as="geometry" />
        </mxCell>
        <mxCell id="NaCixYyaY_WqhjoxsWZP-10" value="hasmany" style="text;html=1;align=center;verticalAlign=middle;resizable=0;points=[];autosize=1;strokeColor=none;fillColor=none;rotation=0;" vertex="1" parent="1">
          <mxGeometry x="200" y="290" width="60" height="20" as="geometry" />
        </mxCell>
        <mxCell id="NaCixYyaY_WqhjoxsWZP-11" value="belongto" style="text;html=1;align=center;verticalAlign=middle;resizable=0;points=[];autosize=1;strokeColor=none;fillColor=none;rotation=0;" vertex="1" parent="1">
          <mxGeometry x="199.99693736145832" y="319.999951795837" width="60" height="20" as="geometry" />
        </mxCell>
        <mxCell id="NaCixYyaY_WqhjoxsWZP-12" value="" style="endArrow=classic;startArrow=classic;html=1;rounded=0;exitX=1;exitY=0.5;exitDx=0;exitDy=0;entryX=0;entryY=0.5;entryDx=0;entryDy=0;" edge="1" parent="1" source="NaCixYyaY_WqhjoxsWZP-1" target="NaCixYyaY_WqhjoxsWZP-4">
          <mxGeometry width="50" height="50" relative="1" as="geometry">
            <mxPoint x="170" y="320" as="sourcePoint" />
            <mxPoint x="220" y="270" as="targetPoint" />
          </mxGeometry>
        </mxCell>
      </root>
    </mxGraphModel>
  </diagram>
</mxfile>
